<?xml version="1.0" standalone="no"?>
<!DOCTYPE svg PUBLIC "-//W3C//DTD SVG 20010904//EN"
 "http://www.w3.org/TR/2001/REC-SVG-20010904/DTD/svg10.dtd">
<svg version="1.0" xmlns="http://www.w3.org/2000/svg"
 width="322.000000pt" height="322.000000pt" viewBox="0 0 322.000000 322.000000"
 preserveAspectRatio="xMidYMid meet">
<metadata>
Created by potrace 1.14, written by Peter Selinger 2001-2017
</metadata>
<g transform="translate(0.000000,322.000000) scale(0.100000,-0.100000)"
fill="#000000" stroke="none">
<path d="M1322 2656 c-564 -108 -944 -619 -901 -1212 18 -251 106 -477 254
-657 66 -80 88 -88 41 -14 -48 74 -109 200 -141 287 -151 419 -64 860 229
1155 173 174 392 265 638 265 162 0 264 -36 352 -124 60 -59 52 -66 -52 -43
-107 24 -191 30 -279 17 -419 -57 -701 -402 -680 -830 10 -202 70 -363 192
-517 237 -301 639 -427 1025 -322 336 91 620 372 733 724 47 146 52 183 52
355 0 139 -4 177 -22 240 -23 79 -52 155 -57 149 -2 -2 3 -44 11 -94 18 -113
12 -338 -12 -450 -9 -44 -34 -124 -55 -178 -121 -302 -363 -515 -670 -588 -78
-19 -270 -17 -349 4 -94 25 -230 103 -210 121 2 2 38 -1 79 -6 92 -12 253 -4
340 16 311 73 535 314 597 641 20 104 13 271 -17 380 -89 328 -362 586 -710
670 -93 22 -298 28 -388 11z m342 -436 c107 -27 190 -73 261 -145 158 -159
200 -398 104 -587 -28 -54 -113 -143 -167 -175 -98 -58 -229 -77 -341 -51 -28
6 -54 8 -58 4 -14 -14 78 -86 130 -101 104 -31 239 -11 358 51 132 70 252 232
290 394 32 136 6 321 -67 467 -29 60 -31 64 -8 38 39 -48 82 -143 105 -234 18
-70 21 -105 17 -200 -7 -187 -63 -315 -193 -446 -168 -169 -413 -225 -631
-144 -75 28 -188 111 -233 172 -81 109 -113 202 -113 327 0 209 120 380 312
446 42 15 82 19 173 19 69 -1 116 3 114 9 -8 24 -107 67 -177 75 -101 13 -178
-1 -279 -50 -203 -100 -320 -305 -321 -563 0 -49 -2 -87 -5 -84 -3 3 -10 41
-15 85 -30 262 113 529 343 643 142 71 262 86 401 50z"/>
</g>
</svg>
