<?xml version="1.0" standalone="no"?>
<!DOCTYPE svg PUBLIC "-//W3C//DTD SVG 20010904//EN"
 "http://www.w3.org/TR/2001/REC-SVG-20010904/DTD/svg10.dtd">
<svg version="1.0" xmlns="http://www.w3.org/2000/svg"
 width="600.000000pt" height="600.000000pt" viewBox="0 0 600.000000 600.000000"
 preserveAspectRatio="xMidYMid meet">

<g transform="translate(0.000000,600.000000) scale(0.100000,-0.100000)"
fill="#000000" stroke="none">
<path d="M3347 5077 c-5 -12 -51 -16 -63 -5 -3 3 -17 0 -32 -8 -15 -8 -37 -14
-48 -14 -12 0 -40 -6 -62 -14 -22 -8 -62 -18 -87 -22 -46 -6 -233 -94 -246
-115 -3 -5 -19 -13 -35 -18 -19 -5 -30 -15 -32 -29 -2 -12 -8 -22 -13 -22 -9
0 -35 -17 -94 -63 -32 -24 -87 -57 -97 -57 -12 0 -58 -47 -58 -59 0 -4 -33
-32 -72 -62 -81 -60 -201 -179 -224 -221 -8 -16 -20 -28 -26 -28 -6 0 -8 -3
-5 -6 8 -8 -24 -64 -35 -64 -4 0 -8 -9 -8 -20 0 -11 -4 -20 -10 -20 -5 0 -10
-7 -10 -15 0 -7 -8 -19 -17 -24 -10 -6 -13 -11 -6 -11 14 0 11 -13 -18 -77
-10 -24 -19 -49 -19 -57 0 -7 -11 -21 -25 -30 -16 -11 -24 -25 -24 -43 1 -33
-4 -60 -14 -69 -4 -4 -7 -16 -7 -27 0 -10 -10 -33 -22 -49 -11 -17 -24 -47
-29 -67 -4 -20 -16 -70 -27 -111 -10 -41 -22 -91 -26 -111 -3 -20 -18 -49 -31
-65 -32 -37 -31 -46 3 -38 35 8 20 -10 -29 -34 -21 -10 -43 -34 -58 -62 -23
-42 -25 -60 -32 -240 -3 -107 -11 -208 -17 -225 -13 -37 -22 -124 -13 -129 3
-2 15 13 25 35 11 21 21 37 24 34 8 -7 -38 -106 -60 -129 -11 -11 -27 -36 -34
-54 -18 -41 -4 -104 29 -127 28 -20 76 -19 105 1 13 9 25 14 28 11 3 -2 5 -29
5 -58 0 -30 0 -115 -1 -190 0 -144 23 -285 72 -449 19 -65 22 -96 21 -225 -2
-206 -53 -484 -94 -507 -8 -4 -41 -18 -74 -29 -40 -15 -73 -36 -101 -64 -42
-43 -178 -125 -208 -125 -20 0 -79 -33 -186 -105 -42 -27 -96 -58 -120 -69
-25 -10 -67 -29 -95 -42 -155 -71 -203 -91 -230 -98 -16 -4 -37 -14 -45 -21
-8 -7 -26 -13 -40 -13 -14 0 -51 -2 -82 -5 -32 -3 -73 0 -93 6 -26 8 -57 7
-118 -2 -118 -18 -115 -14 -62 -74 191 -214 445 -353 757 -412 109 -20 357
-35 605 -35 l202 0 6 52 c6 49 10 55 52 81 69 42 194 63 239 39 14 -7 32 -7
62 1 33 9 45 9 51 -1 8 -14 85 5 125 32 17 11 50 15 121 14 58 0 101 4 108 11
6 6 26 11 43 11 18 0 44 4 58 9 16 7 26 7 28 0 7 -22 76 3 118 42 23 21 49 38
58 38 15 -1 15 -2 0 -6 -19 -5 -25 -23 -8 -23 6 0 27 7 48 16 40 17 151 42
220 51 33 4 42 2 42 -10 0 -17 21 -27 56 -27 15 0 24 -6 24 -15 0 -13 4 -14
21 -5 12 7 37 9 58 5 33 -5 39 -3 43 13 4 15 20 23 59 31 37 8 55 9 57 1 2 -5
10 -10 17 -10 32 0 23 -42 -30 -140 -19 -36 -95 -200 -95 -206 0 -11 1224 4
1310 15 303 40 548 145 745 319 197 175 333 400 395 657 18 71 40 205 35 205
-2 0 -32 -11 -69 -25 -36 -14 -66 -22 -66 -19 0 3 -10 -2 -22 -10 -12 -9 -31
-16 -41 -16 -11 0 -41 -11 -69 -25 -27 -14 -61 -25 -74 -25 -13 0 -33 -8 -43
-18 -44 -39 -55 -45 -90 -48 -91 -9 -125 -20 -114 -37 4 -6 0 -8 -9 -4 -9 3
-34 -1 -57 -9 -23 -8 -53 -11 -66 -8 -25 6 -55 -13 -55 -35 0 -6 -8 -12 -17
-13 -28 -2 -36 -4 -66 -16 -16 -7 -33 -12 -38 -12 -5 0 -33 -12 -62 -27 -29
-14 -72 -28 -97 -30 -25 -2 -72 -12 -105 -22 -142 -44 -223 -63 -235 -56 -6 3
-10 0 -10 -8 0 -8 -12 -14 -32 -14 -69 -2 -125 -12 -167 -31 l-45 -20 -80 40
c-103 51 -217 123 -270 170 -23 20 -63 46 -89 57 l-47 20 -1 68 c0 53 -2 63
-10 45 -8 -21 -37 -38 -55 -32 -4 1 -10 -4 -15 -11 -5 -9 -10 -5 -14 14 -8 30
-20 35 -29 12 -3 -8 -12 -15 -20 -15 -9 0 -13 6 -10 14 4 11 0 13 -14 9 -21
-5 -44 18 -24 25 6 2 8 10 5 18 -3 9 1 14 12 14 9 0 19 -9 22 -20 6 -22 33
-28 33 -7 0 7 -6 19 -12 26 -10 10 -10 15 -1 18 7 2 9 11 7 18 -3 8 10 30 30
50 20 19 43 47 52 60 9 14 23 25 31 25 23 0 63 53 63 85 0 8 9 19 19 25 11 5
23 20 27 32 4 13 15 29 25 36 11 7 19 18 19 23 0 6 23 43 50 83 28 40 50 77
50 84 0 6 11 28 25 48 28 41 33 63 10 44 -16 -14 -20 -3 -6 19 5 7 14 10 20 7
6 -4 11 -3 11 3 0 7 28 73 48 114 2 4 -3 4 -11 1 -11 -4 -17 2 -20 23 -3 19
-4 13 -6 -18 -2 -65 -17 -104 -42 -106 -19 -2 -20 2 -14 48 6 43 5 49 -11 49
-14 0 -15 -3 -6 -12 20 -20 14 -28 -14 -18 -24 9 -26 8 -21 -10 5 -21 -7 -28
-19 -9 -3 6 5 22 20 35 28 27 36 45 10 23 -14 -12 -16 -11 -13 6 3 12 14 21
27 23 22 3 30 21 30 71 1 24 -8 24 -12 -1 -9 -49 -29 -74 -38 -46 -6 18 -28
-1 -28 -24 0 -27 -5 -21 -14 17 -4 16 -4 27 0 23 11 -11 41 9 47 32 3 13 0 20
-9 20 -8 0 -14 -9 -14 -20 0 -11 -4 -20 -10 -20 -5 0 -10 18 -10 41 0 48 -12
45 -30 -10 -7 -22 -16 -38 -21 -36 -4 3 -10 -4 -14 -15 -3 -11 -11 -20 -16
-20 -5 0 -9 -10 -9 -22 0 -13 -7 -36 -15 -51 -8 -16 -14 -38 -12 -50 2 -17 -3
-21 -19 -19 -17 2 -23 -4 -29 -30 -4 -18 -9 -36 -10 -40 -1 -5 -3 -11 -4 -15
-1 -5 -9 4 -17 20 -8 15 -19 27 -24 27 -13 0 -13 -13 0 -26 15 -15 0 -54 -21
-54 -14 0 -19 -7 -19 -25 0 -25 -14 -33 -25 -15 -11 18 -38 -19 -32 -45 3 -21
0 -25 -19 -25 -12 0 -25 -4 -29 -9 -3 -5 -19 -12 -35 -16 -17 -4 -30 -11 -30
-16 0 -6 -5 -7 -11 -3 -9 5 -10 -1 -5 -20 8 -32 -12 -35 -37 -6 -10 12 -23 18
-29 14 -8 -5 -9 -2 -5 10 5 12 -1 19 -19 26 -14 6 -30 8 -35 4 -14 -9 -49 6
-49 21 0 7 -6 16 -12 18 -10 4 -10 6 -1 6 7 1 10 8 6 17 -3 8 -1 25 5 37 47
92 66 219 37 241 -13 9 -14 17 -6 39 6 16 11 39 11 53 0 14 7 27 15 30 8 4 15
12 15 19 0 9 21 12 80 11 44 0 80 -4 80 -8 0 -5 9 -8 20 -8 24 0 27 31 5 54
-8 8 -15 18 -15 21 0 4 7 5 15 1 9 -3 15 0 15 8 0 9 -7 12 -20 9 -11 -3 -20
-9 -20 -14 0 -5 -5 -9 -11 -9 -6 0 -9 6 -6 13 2 6 -10 17 -27 24 -18 7 -24 12
-13 12 13 1 17 8 16 28 -1 16 4 48 11 73 18 65 18 73 5 95 -7 11 -11 28 -10
37 2 12 -8 21 -31 30 -19 6 -34 16 -34 21 0 4 4 6 9 2 5 -3 12 -1 16 5 3 5 2
10 -4 10 -11 0 -26 39 -22 59 1 9 -3 12 -12 8 -18 -7 -28 14 -32 66 -2 29 3
45 21 64 13 14 24 29 24 32 0 4 22 24 49 44 27 21 56 53 65 71 35 75 9 200
-34 161 -9 -8 -49 -20 -89 -27 -70 -12 -73 -11 -89 9 -9 11 -26 24 -38 27 -12
4 -26 17 -32 30 -9 21 -47 37 -97 41 -19 1 -41 20 -65 53 -13 17 -30 32 -37
32 -7 0 -18 11 -23 25 -5 14 -13 26 -17 26 -5 1 -33 3 -63 4 -50 3 -60 0 -89
-26 -19 -16 -38 -29 -42 -29 -5 0 -9 -6 -9 -14 0 -7 -7 -19 -15 -26 -26 -22
-16 4 17 45 18 22 36 41 40 43 15 7 108 104 108 113 0 6 18 28 40 50 22 22 38
44 35 48 -2 5 2 14 10 21 8 7 25 30 37 51 12 22 26 39 30 39 5 0 6 5 2 12 -16
25 -1 133 26 193 5 11 14 33 20 48 5 15 24 36 40 45 23 13 30 23 27 39 -3 17
4 26 29 38 32 15 46 35 24 35 -5 0 -10 -5 -10 -12 0 -6 -3 -8 -6 -5 -4 4 1 18
10 32 15 24 15 26 -4 42 -11 10 -20 24 -20 31 0 9 -6 12 -16 8 -10 -4 -13 -2
-8 6 5 7 2 9 -9 5 -12 -4 -14 -2 -10 10 5 13 2 15 -15 11 -12 -4 -22 -2 -22 3
0 5 -11 9 -25 9 -34 0 -106 30 -99 41 3 5 -8 9 -25 9 -16 0 -33 5 -36 10 -3 6
-22 10 -41 10 -24 0 -33 4 -28 12 5 8 0 9 -14 6 -12 -4 -25 -2 -28 3 -3 5 -11
6 -17 2 -18 -11 -137 -15 -137 -5 0 22 -156 32 -261 17 -38 -5 -65 -15 -83
-31 -14 -13 -35 -24 -48 -25 -13 0 -32 -4 -43 -8 -25 -10 -47 -3 -38 13 4 6 8
23 8 37 0 15 7 34 14 43 11 14 11 16 -2 16 -18 0 -17 21 2 44 10 12 10 16 1
16 -8 0 -10 8 -6 24 4 16 0 30 -10 40 -14 15 -14 16 1 16 9 0 13 5 10 11 -4 6
-14 8 -24 4 -13 -5 -14 -4 -3 6 14 15 17 73 2 64 -5 -3 -10 -2 -10 4 0 5 4 12
9 15 5 3 7 14 5 24 -5 18 83 122 104 122 6 0 15 6 19 13 8 13 175 123 231 151
53 27 209 85 229 85 39 -1 90 9 127 25 26 11 68 16 131 16 140 0 214 10 220
29 4 13 17 16 70 14 38 -1 63 2 60 7 -6 10 25 30 47 30 18 0 69 -46 60 -54 -4
-4 6 -4 22 0 19 5 31 2 37 -7 6 -10 9 -11 9 -1 0 7 8 4 20 -8 11 -11 27 -20
35 -20 9 0 27 -11 41 -25 15 -15 30 -22 41 -18 10 4 14 2 10 -4 -7 -11 11 -32
27 -31 9 1 35 -16 75 -48 14 -12 51 -35 81 -52 95 -54 193 -159 265 -285 15
-26 30 -45 33 -42 4 3 13 -15 22 -40 16 -51 33 -63 38 -27 2 12 -1 22 -6 22
-5 0 -7 11 -4 25 2 14 -3 36 -11 49 -9 13 -18 41 -20 63 -4 51 -24 88 -53 102
-13 6 -23 14 -22 18 1 5 -3 18 -10 29 -6 12 -9 24 -5 27 3 4 -2 9 -11 13 -9 3
-16 13 -16 21 0 8 -4 11 -10 8 -5 -3 -10 -1 -10 4 0 6 -10 11 -21 11 -18 0
-21 5 -17 30 4 25 1 30 -17 30 -13 0 -32 13 -45 30 -13 17 -28 30 -34 30 -6 0
-24 14 -40 31 -17 16 -35 28 -42 25 -15 -6 -54 30 -54 49 0 9 -10 15 -25 15
-14 0 -28 7 -31 15 -4 8 -10 12 -15 9 -5 -3 -32 8 -59 25 -28 17 -54 31 -58
31 -4 0 -20 7 -37 16 -16 8 -38 13 -49 10 -11 -3 -27 -1 -36 4 -9 5 -42 10
-74 11 -31 1 -69 9 -84 16 -14 8 -37 11 -50 8 -13 -3 -30 -1 -38 6 -8 6 -14 8
-14 4 0 -4 -6 -2 -14 4 -10 9 -15 8 -19 -2z m937 -563 c10 -25 -1 -29 -14 -5
-6 12 -7 21 -1 21 5 0 12 -7 15 -16z m44 -69 c-3 -3 -9 2 -12 12 -6 14 -5 15
5 6 7 -7 10 -15 7 -18z m-1978 -384 c0 -6 -4 -13 -10 -16 -5 -3 -10 1 -10 9 0
9 5 16 10 16 6 0 10 -4 10 -9z m310 -478 c-8 -3 -18 -11 -22 -17 -4 -6 -10 -7
-15 -3 -9 10 16 27 37 26 13 -1 13 -1 0 -6z m374 -2 c4 -5 2 -11 -3 -13 -4 -1
-5 -12 0 -23 6 -17 8 -17 8 -2 1 21 4 21 41 2 17 -9 32 -15 35 -15 32 1 34 -1
25 -24 -5 -13 -6 -34 -3 -46 5 -20 3 -21 -18 -16 l-24 7 25 -20 c14 -11 19
-21 13 -21 -7 0 -13 -7 -13 -15 0 -9 -10 -20 -22 -25 -13 -5 -19 -9 -14 -9 11
-1 -31 -43 -66 -65 -15 -10 -35 -15 -46 -12 -15 5 -24 -4 -44 -50 -36 -79
-151 -264 -164 -264 -7 0 -19 -11 -28 -25 -9 -13 -48 -56 -86 -94 -39 -39 -70
-77 -70 -85 0 -8 -7 -19 -16 -24 -11 -6 -13 -11 -5 -16 18 -11 13 -26 -9 -26
-11 0 -23 -7 -26 -15 -4 -8 -12 -15 -20 -15 -13 0 -29 -12 -79 -60 -25 -24
-37 -26 -29 -5 5 11 -1 15 -20 15 -15 0 -29 -7 -32 -15 -7 -17 -54 -21 -54 -5
0 6 9 10 20 10 10 0 24 8 29 19 15 28 -17 62 -52 55 -37 -6 -67 26 -67 72 0
26 -7 43 -25 60 l-26 24 41 6 c22 4 40 10 40 15 0 5 -5 9 -11 9 -24 0 -76 65
-76 95 0 16 -6 31 -12 33 -7 2 -4 14 9 32 25 35 25 35 -1 61 -18 18 -20 29
-15 65 4 35 3 44 -9 44 -8 0 -15 6 -15 13 0 7 -10 24 -21 36 -18 19 -19 25 -8
33 10 7 7 7 -9 3 -22 -6 -22 -4 -21 49 2 48 5 55 26 60 26 7 30 24 7 33 -13 5
-13 7 -2 14 10 7 10 9 1 9 -7 0 -13 6 -13 14 0 9 7 12 20 9 14 -4 30 3 45 17
20 18 39 24 100 28 41 2 75 1 75 -4 0 -11 465 -12 476 -1 4 4 -7 7 -24 7 -18
0 -32 4 -32 9 0 5 -18 8 -40 7 -22 -1 -40 1 -40 6 0 4 5 8 10 8 6 0 10 7 10
15 0 12 13 14 78 9 42 -3 97 -9 122 -13 25 -5 64 -9 88 -10 40 -1 43 0 37 19
-4 14 -2 20 9 20 8 0 17 -4 20 -9z m-1049 -264 c-19 -10 -10 -28 10 -20 8 3
15 0 15 -6 0 -6 -4 -11 -9 -11 -5 0 -12 -18 -16 -40 -4 -22 -11 -40 -16 -40
-6 0 -5 -8 1 -20 6 -10 8 -43 5 -72 -12 -133 -13 -178 -3 -178 6 0 6 -6 -2
-15 -7 -8 -10 -21 -7 -29 4 -9 -2 -13 -19 -13 -27 0 -33 16 -6 18 11 1 9 4 -8
9 l-25 8 24 8 c21 6 22 8 7 14 -10 3 -18 10 -18 15 0 6 -4 16 -10 23 -6 7 -6
12 -1 12 11 0 9 152 -2 170 -4 7 -2 16 6 22 11 7 11 11 2 15 -7 2 -13 9 -13
14 0 6 5 7 10 4 6 -4 10 13 10 44 0 36 4 50 13 49 6 -2 11 6 10 16 -1 11 8 27
20 37 21 17 22 17 30 -4 5 -15 3 -23 -8 -30z m125 -132 c0 -9 -6 -12 -15 -9
-8 4 -15 10 -15 15 0 5 7 9 15 9 8 0 15 -7 15 -15z m-313 -267 c-3 -8 -6 -5
-6 6 -1 11 2 17 5 13 3 -3 4 -12 1 -19z m153 -78 c0 -5 -7 -10 -15 -10 -8 0
-15 5 -15 10 0 6 7 10 15 10 8 0 15 -4 15 -10z m1407 -105 c-2 -14 -11 -35
-20 -45 -18 -22 -22 -40 -8 -40 12 0 21 -49 10 -56 -5 -2 -11 7 -15 21 -7 28
-14 31 -31 14 -7 -7 -20 -9 -30 -5 -17 7 -17 8 0 17 9 6 17 17 17 26 0 12 -3
13 -15 3 -8 -6 -19 -9 -25 -5 -5 3 -10 1 -10 -5 0 -6 -16 -27 -35 -47 -19 -20
-35 -45 -35 -55 0 -15 -5 -18 -20 -13 -12 4 -20 2 -20 -5 0 -6 5 -8 10 -5 10
6 14 -20 11 -57 -2 -14 5 -18 31 -18 19 0 39 5 46 12 7 7 12 8 12 2 0 -5 -5
-15 -12 -22 -19 -19 1 -14 33 9 16 11 33 18 38 15 5 -4 12 0 15 6 4 7 4 2 2
-11 -7 -37 10 -61 44 -61 27 0 28 -2 25 -35 -2 -19 1 -38 6 -41 14 -8 10 -24
-6 -24 -8 0 -15 5 -15 10 0 6 -11 10 -24 10 -14 0 -27 4 -30 9 -10 16 -80 22
-129 11 -48 -10 -69 -6 -99 23 -7 7 -35 27 -63 45 -42 28 -56 33 -88 27 -33
-5 -38 -3 -35 12 2 10 12 19 23 21 45 6 94 26 100 39 3 9 12 13 20 10 23 -10
75 22 75 45 l0 21 -19 -21 c-21 -25 -41 -29 -41 -7 0 8 5 15 11 15 6 0 26 15
44 34 20 21 48 37 69 42 20 3 34 10 31 14 -6 9 69 64 107 80 39 15 49 12 45
-15z m4 -148 c-10 -9 -11 -8 -5 6 3 10 9 15 12 12 3 -3 0 -11 -7 -18z m-61
-32 c0 -14 -4 -25 -10 -25 -5 0 -10 11 -10 25 0 14 5 25 10 25 6 0 10 -11 10
-25z m64 -17 c-8 -28 -23 -48 -35 -48 -14 0 -11 18 7 45 20 31 38 32 28 3z
m-96 -38 c-7 -11 -16 -20 -20 -20 -5 0 -3 9 4 20 7 11 16 20 20 20 5 0 3 -9
-4 -20z m62 -50 c0 -5 -5 -10 -11 -10 -5 0 -7 5 -4 10 3 6 8 10 11 10 2 0 4
-4 4 -10z m237 -56 c-3 -3 -12 -4 -19 -1 -8 3 -5 6 6 6 11 1 17 -2 13 -5z
m-1105 -95 c6 -17 72 -18 153 -2 141 27 264 14 388 -41 18 -7 73 -22 122 -31
124 -25 165 -44 199 -94 31 -45 38 -75 37 -164 -1 -60 -22 -107 -47 -107 -8 0
-14 -4 -14 -10 0 -5 -7 -10 -15 -10 -9 0 -21 -11 -27 -25 -6 -14 -15 -25 -21
-25 -5 0 -6 -7 -3 -16 3 -9 1 -34 -5 -56 -7 -29 -7 -49 0 -69 6 -16 16 -42 22
-59 6 -16 15 -27 20 -25 4 3 7 -8 6 -25 -2 -24 -5 -29 -21 -24 -14 5 -18 3
-13 -10 3 -8 2 -18 -3 -21 -5 -3 -7 -12 -3 -20 4 -11 -2 -15 -23 -15 -21 0
-25 -3 -15 -9 7 -5 10 -14 6 -21 -6 -9 -9 -9 -16 1 -7 11 -9 11 -9 -2 0 -11
-8 -16 -22 -15 -27 2 -53 -25 -35 -36 6 -4 8 -10 4 -14 -3 -4 -14 -1 -22 6
-13 11 -18 10 -28 -4 -7 -10 -19 -16 -27 -14 -9 2 -15 -4 -15 -15 0 -28 -27
-38 -56 -22 -13 8 -34 19 -46 24 -23 10 -33 51 -13 51 6 0 10 -4 10 -10 0 -5
5 -10 12 -10 9 0 9 3 1 11 -6 6 -9 18 -6 25 3 9 -2 14 -16 14 -12 0 -21 -4
-21 -10 0 -5 -6 -7 -14 -4 -9 3 -17 -3 -21 -15 -3 -12 -10 -21 -15 -21 -5 0
-7 6 -4 14 6 17 -13 31 -44 31 -14 1 -21 -4 -18 -11 3 -7 -2 -15 -10 -18 -8
-3 -14 1 -14 10 0 11 -4 12 -19 4 -27 -14 -29 -14 -36 20 -4 17 -11 30 -16 30
-6 0 -7 9 -4 20 5 15 2 20 -10 20 -11 0 -15 5 -11 15 3 8 1 15 -4 15 -6 0 -10
-3 -10 -7 0 -5 -14 -8 -30 -9 -18 -1 -30 4 -30 11 0 7 -7 15 -15 19 -23 8 -18
20 15 39 30 18 40 37 19 37 -6 0 -18 -8 -27 -17 -15 -15 -17 -15 -20 -1 -2 13
-9 15 -32 8 l-29 -8 20 35 c19 33 19 35 2 28 -54 -23 -81 -16 -45 11 15 12 13
13 -19 14 -47 0 -69 23 -40 42 29 18 28 41 -1 32 -23 -6 -23 -6 1 15 20 18 22
23 10 37 -18 22 3 33 71 35 125 4 170 8 188 18 10 5 28 8 39 5 12 -3 24 -1 27
5 4 6 14 11 22 11 12 0 12 -4 4 -20 -10 -19 2 -30 14 -12 9 15 67 12 83 -4 15
-15 17 -15 25 7 12 32 48 54 48 29 0 -6 -6 -9 -12 -8 -8 2 -14 -9 -16 -26 l-4
-29 48 28 c25 15 44 22 40 16 -4 -6 -2 -11 3 -11 6 0 11 -9 11 -19 0 -15 5
-18 22 -13 15 3 19 2 14 -7 -6 -9 4 -11 36 -10 24 2 50 -1 58 -6 8 -5 4 6 -9
23 l-22 32 26 0 c15 0 24 -4 20 -10 -8 -12 5 -13 25 0 12 7 11 10 -5 15 -57
19 -76 29 -102 55 -20 21 -31 26 -40 18 -9 -7 -13 -7 -13 2 0 9 -6 7 -20 -5
-25 -23 -46 -14 -55 24 -8 36 -31 52 -60 41 -10 -4 -31 -3 -45 1 -84 26 -110
31 -126 25 -24 -9 -84 4 -84 18 0 7 -16 18 -35 26 -19 8 -35 19 -35 24 0 7 -3
7 -8 0 -13 -21 -52 -27 -58 -10 -3 9 -16 16 -28 16 -23 0 -61 20 -38 20 7 0
10 5 7 10 -3 6 -17 7 -31 4 -14 -4 -31 -1 -41 7 -13 11 -17 11 -20 2 -3 -7 -9
-13 -15 -13 -5 0 -6 9 -3 21 4 13 2 25 -5 29 -8 5 1 21 29 50 41 43 50 57 31
45 -15 -9 -12 2 6 30 17 26 59 34 66 14z m263 -419 c3 -5 1 -10 -4 -10 -6 0
-11 5 -11 10 0 6 2 10 4 10 3 0 8 -4 11 -10z m1309 -104 c-13 -54 -24 -23 -15
44 1 2 6 -1 12 -7 5 -5 7 -22 3 -37z m51 -5 c-2 -5 -14 -11 -26 -14 -20 -5
-20 -5 -4 13 17 18 41 18 30 1z m-23 -86 c-2 -14 -6 -25 -8 -25 -2 0 -4 11 -4
25 0 14 4 25 9 25 4 0 6 -11 3 -25z m-619 -172 c-7 -2 -19 -2 -25 0 -7 3 -2 5
12 5 14 0 19 -2 13 -5z m-273 -150 c0 -26 -1 -26 -17 -10 -16 16 -16 19 -3 27
20 13 20 13 20 -17z m1560 -697 c0 -2 -11 -6 -25 -8 -13 -3 -22 -1 -19 3 5 9
44 13 44 5z m910 -30 c0 -10 -33 -36 -45 -36 -19 0 -8 28 13 33 25 7 32 7 32
3z m-590 -177 c0 -5 8 -9 18 -10 11 0 12 -2 4 -6 -7 -3 -19 1 -28 7 -12 11
-13 10 -8 -5 5 -13 4 -16 -4 -11 -18 11 -15 47 3 40 8 -4 15 -10 15 -15z m10
-39 c0 -5 -5 -10 -11 -10 -5 0 -7 5 -4 10 3 6 8 10 11 10 2 0 4 -4 4 -10z
m-1732 -20 c17 0 32 -4 32 -10 0 -5 -18 -10 -40 -10 -22 0 -40 4 -40 9 0 5 -6
11 -12 14 -7 2 -4 3 7 1 11 -2 35 -4 53 -4z m332 -44 c0 -3 -4 -8 -10 -11 -5
-3 -10 -1 -10 4 0 6 5 11 10 11 6 0 10 -2 10 -4z"/>
<path d="M2166 3024 c-9 -22 -8 -24 9 -24 8 0 15 9 15 20 0 24 -15 27 -24 4z"/>
<path d="M2240 2750 c0 -5 5 -10 10 -10 6 0 10 5 10 10 0 6 -4 10 -10 10 -5 0
-10 -4 -10 -10z"/>
<path d="M2507 2111 c-5 -22 0 -31 19 -31 17 0 27 32 12 42 -20 12 -25 10 -31
-11z"/>
<path d="M2630 1530 c0 -5 5 -10 11 -10 5 0 7 5 4 10 -3 6 -8 10 -11 10 -2 0
-4 -4 -4 -10z"/>
<path d="M3198 4853 c7 -3 16 -2 19 1 4 3 -2 6 -13 5 -11 0 -14 -3 -6 -6z"/>
<path d="M4420 4180 c0 -5 5 -10 11 -10 5 0 7 5 4 10 -3 6 -8 10 -11 10 -2 0
-4 -4 -4 -10z"/>
<path d="M4495 4020 c10 -35 25 -49 25 -23 0 11 -7 27 -16 34 -15 12 -16 11
-9 -11z"/>
<path d="M3546 4014 c-4 -10 -1 -14 6 -12 15 5 23 28 10 28 -5 0 -13 -7 -16
-16z"/>
<path d="M3553 3989 c-6 -6 -9 -18 -6 -25 4 -10 -4 -14 -30 -14 -27 0 -34 -4
-33 -17 0 -10 6 -21 11 -25 6 -5 5 -11 -4 -17 -7 -5 -11 -13 -7 -19 3 -6 2
-21 -3 -34 -7 -19 -4 -32 11 -56 11 -18 24 -32 29 -32 5 0 9 -7 9 -15 0 -21
11 -19 44 10 16 14 24 25 17 25 -9 0 -8 5 3 15 15 16 51 21 42 7 -3 -5 5 -24
16 -43 15 -23 21 -48 20 -78 -2 -54 30 -128 58 -133 18 -3 17 -6 -10 -47 -17
-24 -30 -53 -30 -64 0 -10 20 -39 45 -64 25 -24 43 -49 40 -54 -4 -5 -2 -9 4
-9 5 0 11 6 14 13 3 9 9 9 28 0 13 -6 45 -19 72 -29 26 -9 47 -18 47 -20 0
-11 -98 1 -118 14 -12 8 -25 12 -28 9 -7 -7 114 -93 150 -107 35 -13 86 -13
86 0 0 6 9 10 20 10 12 0 20 7 21 18 0 9 3 12 5 5 3 -7 12 -9 20 -6 7 3 12 9
9 13 -9 15 39 6 65 -12 14 -10 41 -19 60 -20 l35 -3 0 68 c1 44 -4 72 -12 79
-7 6 -13 23 -13 38 0 14 -3 30 -7 34 -12 12 -12 40 0 48 9 5 9 10 -1 20 -19
19 -14 49 8 55 11 3 20 12 20 19 0 20 14 17 44 -11 l26 -24 0 35 c0 21 -4 33
-10 29 -5 -3 -10 -1 -10 4 0 6 7 11 15 11 20 0 19 8 -5 53 -11 20 -19 38 -18
39 2 2 -10 20 -27 40 -17 21 -32 33 -36 27 -4 -7 -13 -8 -25 -1 -41 21 -83 30
-87 19 -2 -7 -10 -7 -23 -2 -10 4 -23 7 -28 6 -5 -1 -3 6 5 15 9 12 10 15 1
10 -12 -7 -65 13 -135 50 -15 9 -55 17 -90 19 -34 3 -63 9 -65 14 -2 5 -9 8
-15 6 -15 -5 -41 14 -50 38 -3 9 -16 17 -29 17 -12 0 -31 11 -43 25 -23 28
-84 42 -102 24z m535 -405 c26 -17 29 -41 5 -46 -29 -6 -106 13 -131 33 -21
16 -21 18 -5 27 23 13 102 4 131 -14z"/>
<path d="M4530 3916 c0 -2 8 -10 18 -17 15 -13 16 -12 3 4 -13 16 -21 21 -21
13z"/>
<path d="M4550 3828 c-1 -103 -8 -180 -19 -191 -6 -6 -11 -27 -11 -47 0 -19
-9 -68 -20 -108 -19 -69 -41 -322 -39 -452 l1 -55 24 75 c14 41 29 122 35 179
5 57 14 111 19 121 15 28 50 277 50 356 0 75 -18 164 -32 164 -4 0 -8 -19 -8
-42z"/>
<path d="M3538 3449 c-6 -19 2 -49 13 -49 11 0 11 31 0 49 -7 11 -9 11 -13 0z"/>
<path d="M3548 3375 c-6 -6 14 -105 22 -105 11 0 10 62 -1 76 -9 11 -9 14 0
14 7 0 9 5 6 10 -7 11 -19 13 -27 5z"/>
<path d="M3570 3183 c0 -21 5 -45 10 -53 8 -11 10 -2 8 33 -2 57 -18 75 -18
20z"/>
<path d="M4428 2742 c-15 -10 -28 -28 -32 -46 -3 -17 -10 -51 -16 -76 -5 -25
-11 -55 -14 -67 -8 -39 13 -25 23 15 6 21 24 59 41 84 30 45 50 109 34 107 -5
0 -21 -8 -36 -17z"/>
<path d="M4280 2240 c-6 -11 -8 -20 -6 -20 3 0 10 9 16 20 6 11 8 20 6 20 -3
0 -10 -9 -16 -20z"/>
<path d="M4271 2194 c0 -11 3 -14 6 -6 3 7 2 16 -1 19 -3 4 -6 -2 -5 -13z"/>
<path d="M4250 2131 c0 -16 -5 -21 -14 -18 -8 3 -16 -2 -19 -14 -6 -21 8 -27
16 -6 4 7 6 6 6 -4 1 -24 -28 -33 -36 -12 -5 14 -8 11 -15 -12 -7 -28 0 -52 9
-27 3 6 12 12 21 12 10 0 13 -3 7 -8 -6 -4 -12 -19 -13 -34 -2 -25 1 -28 31
-28 30 1 31 1 13 15 -18 14 -19 19 -7 81 6 37 9 69 6 72 -3 3 -5 -5 -5 -17z"/>
<path d="M3735 2120 c3 -5 8 -10 11 -10 2 0 4 5 4 10 0 6 -5 10 -11 10 -5 0
-7 -4 -4 -10z"/>
<path d="M3722 2080 c14 -22 24 -25 33 -10 3 6 -1 10 -9 10 -9 0 -16 5 -16 10
0 6 -5 10 -10 10 -6 0 -5 -8 2 -20z"/>
<path d="M4180 1931 c-7 -15 -7 -21 0 -21 12 0 25 28 17 36 -3 3 -10 -4 -17
-15z"/>
</g>
</svg>
